{
  "asset": {
    "version": "2.0",
    "generator": "THREE.GLTFExporter"
  },
  "scenes": [
    {
      "nodes": [
        0
      ]
    }
  ],
  "scene": 0,
  "nodes": [
    {
      "children": [
        6
      ],
      "matrix": [
        0.01,
        0,
        0,
        0,
        0,
        0.01,
        0,
        0,
        0,
        0,
        0.01,
        0,
        0,
        0,
        0,
        1
      ]
    },
    {
      "matrix": [
        0.9183326967504672,
        -0.31328106147509716,
        0.24190914534190483,
        0,
        0.3228706739763955,
        0.9464430927879542,
        0,
        0,
        -0.22895323969108314,
        0.07810536879759464,
        0.9702989051833198,
        0,
        0,
        0,
        0,
        1
      ],
      "name": "Directional Light",
      "extensions": {
        "KHR_lights_punctual": {
          "light": 0
        }
      }
    },
    {
      "matrix": [
        1,
        0,
        0,
        0,
        0,
        1,
        0,
        0,
        0,
        0,
        1,
        0,
        -145.83049326267428,
        -161.58912561427132,
        -2289.773933119446,
        1
      ],
      "name": "Rectangle 2",
      "mesh": 0
    },
    {
      "matrix": [
        1,
        0,
        0,
        0,
        0,
        1,
        0,
        0,
        0,
        0,
        1,
        0,
        907.0394408627526,
        -161.58912561427132,
        -2289.773933119446,
        1
      ],
      "name": "Rectangle",
      "mesh": 1
    },
    {
      "matrix": [
        1,
        0,
        0,
        0,
        0,
        0.00009999999957099881,
        -0.999999995,
        0,
        0,
        0.999999995,
        0.00009999999957099881,
        0,
        -937.0677307223622,
        2878.6494916065176,
        2577.536562595604,
        1
      ],
      "camera": 0
    },
    {
      "matrix": [
        1,
        0,
        0,
        0,
        0,
        1,
        0,
        0,
        0,
        0,
        1,
        0,
        0,
        1,
        0,
        1
      ],
      "name": "Default Ambient Light"
    },
    {
      "name": "Scene 1",
      "children": [
        1,
        2,
        3,
        4,
        5
      ]
    }
  ],
  "extensions": {
    "KHR_lights_punctual": {
      "lights": [
        {
          "name": "Directional Light",
          "color": [
            1,
            1,
            1
          ],
          "intensity": 0.7,
          "type": "directional"
        }
      ]
    }
  },
  "bufferViews": [
    {
      "buffer": 0,
      "byteOffset": 0,
      "byteLength": 7872,
      "target": 34962,
      "byteStride": 12
    },
    {
      "buffer": 0,
      "byteOffset": 7872,
      "byteLength": 7872,
      "target": 34962,
      "byteStride": 12
    },
    {
      "buffer": 0,
      "byteOffset": 15744,
      "byteLength": 5248,
      "target": 34962,
      "byteStride": 8
    },
    {
      "buffer": 0,
      "byteOffset": 20992,
      "byteLength": 7824,
      "target": 34963
    },
    {
      "buffer": 0,
      "byteOffset": 28816,
      "byteLength": 7872,
      "target": 34962,
      "byteStride": 12
    },
    {
      "buffer": 0,
      "byteOffset": 36688,
      "byteLength": 7872,
      "target": 34962,
      "byteStride": 12
    },
    {
      "buffer": 0,
      "byteOffset": 44560,
      "byteLength": 5248,
      "target": 34962,
      "byteStride": 8
    },
    {
      "buffer": 0,
      "byteOffset": 49808,
      "byteLength": 7824,
      "target": 34963
    }
  ],
  "buffers": [
    {
      "byteLength": 57632,
      "uri": "data:application/octet-stream;base64,"
    }
  ],
  "accessors": [
    {
      "bufferView": 0,
      "componentType": 5126,
      "count": 656,
      "max": [
        85.10248565673828,
        58.41087341308594,
        10000
      ],
      "min": [
        -85.10248565673828,
        -58.41087341308594,
        0
      ],
      "type": "VEC3"
    },
    {
      "bufferView": 1,
      "componentType": 5126,
      "count": 656,
      "max": [
        1,
        1,
        1
      ],
      "min": [
        -1,
        -1,
        -1
      ],
      "type": "VEC3"
    },
    {
      "bufferView": 2,
      "componentType": 5126,
      "count": 656,
      "max": [
        1,
        1
      ],
      "min": [
        0,
        0
      ],
      "type": "VEC2"
    },
    {
      "bufferView": 3,
      "componentType": 5125,
      "count": 1956,
      "max": [
        655
      ],
      "min": [
        0
      ],
      "type": "SCALAR"
    },
    {
      "bufferView": 4,
      "componentType": 5126,
      "count": 656,
      "max": [
        85.10248565673828,
        58.41087341308594,
        10000
      ],
      "min": [
        -85.10248565673828,
        -58.41087341308594,
        0
      ],
      "type": "VEC3"
    },
    {
      "bufferView": 5,
      "componentType": 5126,
      "count": 656,
      "max": [
        1,
        1,
        1
      ],
      "min": [
        -1,
        -1,
        -1
      ],
      "type": "VEC3"
    },
    {
      "bufferView": 6,
      "componentType": 5126,
      "count": 656,
      "max": [
        1,
        1
      ],
      "min": [
        0,
        0
      ],
      "type": "VEC2"
    },
    {
      "bufferView": 7,
      "componentType": 5125,
      "count": 1956,
      "max": [
        655
      ],
      "min": [
        0
      ],
      "type": "SCALAR"
    }
  ],
  "meshes": [
    {
      "primitives": [
        {
          "mode": 4,
          "attributes": {
            "POSITION": 0,
            "NORMAL": 1,
            "TEXCOORD_0": 2
          },
          "extras": {
            "shape": {
              "points": [
                -85.1024818805854,
                58.410874385728675,
                -85.1024818805854,
                58.410874385728675,
                -85.1024818805854,
                58.410874385728675,
                42,
                85.1024818805854,
                58.410874385728675,
                85.1024818805854,
                58.410874385728675,
                85.1024818805854,
                58.410874385728675,
                42,
                85.1024818805854,
                -58.410874385728675,
                85.1024818805854,
                -58.410874385728675,
                85.1024818805854,
                -58.410874385728675,
                42,
                -85.1024818805854,
                -58.410874385728675,
                -85.1024818805854,
                -58.410874385728675,
                -85.1024818805854,
                -58.410874385728675,
                42
              ],
              "shapeHoles": [],
              "isClosed": true,
              "roundness": 42
            },
            "parameters": {
              "width": 170.2049637611708,
              "depth": 10000,
              "cornerRadius": [
                42,
                42,
                42,
                42
              ],
              "cornerType": 0,
              "extrudeBevelSize": 0,
              "extrudeBevelSegments": 1,
              "height": 116.82174877145735,
              "type": "RectangleGeometry"
            },
            "ui": {
              "enabledIndieCorners": false
            },
            "type": "RectangleGeometry"
          },
          "indices": 3
        }
      ]
    },
    {
      "primitives": [
        {
          "mode": 4,
          "attributes": {
            "POSITION": 4,
            "NORMAL": 5,
            "TEXCOORD_0": 6
          },
          "extras": {
            "shape": {
              "points": [
                -85.1024818805854,
                58.410874385728675,
                -85.1024818805854,
                58.410874385728675,
                -85.1024818805854,
                58.410874385728675,
                42,
                85.1024818805854,
                58.410874385728675,
                85.1024818805854,
                58.410874385728675,
                85.1024818805854,
                58.410874385728675,
                42,
                85.1024818805854,
                -58.410874385728675,
                85.1024818805854,
                -58.410874385728675,
                85.1024818805854,
                -58.410874385728675,
                42,
                -85.1024818805854,
                -58.410874385728675,
                -85.1024818805854,
                -58.410874385728675,
                -85.1024818805854,
                -58.410874385728675,
                42
              ],
              "shapeHoles": [],
              "isClosed": true,
              "roundness": 42
            },
            "parameters": {
              "width": 170.2049637611708,
              "depth": 10000,
              "cornerRadius": [
                42,
                42,
                42,
                42
              ],
              "cornerType": 0,
              "extrudeBevelSize": 0,
              "extrudeBevelSegments": 1,
              "height": 116.82174877145735,
              "type": "RectangleGeometry"
            },
            "ui": {
              "enabledIndieCorners": false
            },
            "type": "RectangleGeometry"
          },
          "indices": 7
        }
      ]
    }
  ],
  "cameras": [
    {
      "type": "orthographic",
      "orthographic": {
        "xmag": 255.8353156614479,
        "ymag": 122.45450786087012,
        "zfar": 100000,
        "znear": 0
      }
    }
  ],
  "extensionsUsed": [
    "KHR_lights_punctual"
  ]
}